<mxfile host="Electron" agent="Mozilla/5.0 (X11; Linux x86_64) AppleWebKit/537.36 (KHTML, like Gecko) draw.io/24.7.17 Chrome/128.0.6613.36 Electron/32.0.1 Safari/537.36" version="24.7.17">
  <diagram name="Page-1" id="2YBvvXClWsGukQMizWep">
    <mxGraphModel dx="398" dy="1863" grid="1" gridSize="10" guides="1" tooltips="1" connect="1" arrows="1" fold="1" page="1" pageScale="1" pageWidth="850" pageHeight="1100" math="0" shadow="0">
      <root>
        <mxCell id="0" />
        <mxCell id="1" parent="0" />
        <mxCell id="aM9ryv3xv72pqoxQDRHE-5" value="InputManager" style="shape=umlLifeline;perimeter=lifelinePerimeter;whiteSpace=wrap;html=1;container=0;dropTarget=0;collapsible=0;recursiveResize=0;outlineConnect=0;portConstraint=eastwest;newEdgeStyle={&quot;edgeStyle&quot;:&quot;elbowEdgeStyle&quot;,&quot;elbow&quot;:&quot;vertical&quot;,&quot;curved&quot;:0,&quot;rounded&quot;:0};" parent="1" vertex="1">
          <mxGeometry x="240" y="40" width="100" height="560" as="geometry" />
        </mxCell>
        <mxCell id="aM9ryv3xv72pqoxQDRHE-6" value="" style="html=1;points=[];perimeter=orthogonalPerimeter;outlineConnect=0;targetShapes=umlLifeline;portConstraint=eastwest;newEdgeStyle={&quot;edgeStyle&quot;:&quot;elbowEdgeStyle&quot;,&quot;elbow&quot;:&quot;vertical&quot;,&quot;curved&quot;:0,&quot;rounded&quot;:0};" parent="aM9ryv3xv72pqoxQDRHE-5" vertex="1">
          <mxGeometry x="45" y="80" width="10" height="460" as="geometry" />
        </mxCell>
        <mxCell id="aM9ryv3xv72pqoxQDRHE-7" value="click_search()" style="html=1;verticalAlign=bottom;endArrow=block;elbow=vertical;rounded=0;" parent="1" target="aM9ryv3xv72pqoxQDRHE-6" edge="1">
          <mxGeometry relative="1" as="geometry">
            <mxPoint x="95" y="120" as="sourcePoint" />
          </mxGeometry>
        </mxCell>
        <mxCell id="aM9ryv3xv72pqoxQDRHE-9" value="Show search text field." style="html=1;verticalAlign=bottom;endArrow=open;elbow=vertical;rounded=0;dashed=1;endFill=0;" parent="1" edge="1">
          <mxGeometry relative="1" as="geometry">
            <mxPoint x="285" y="150" as="sourcePoint" />
            <mxPoint x="100" y="150" as="targetPoint" />
          </mxGeometry>
        </mxCell>
        <mxCell id="aM9ryv3xv72pqoxQDRHE-10" value="search_room(text_input: String)" style="html=1;verticalAlign=bottom;endArrow=block;endSize=6;elbow=vertical;rounded=0;endFill=1;" parent="1" edge="1">
          <mxGeometry relative="1" as="geometry">
            <mxPoint x="285" y="259.74" as="targetPoint" />
            <mxPoint x="100" y="259.74" as="sourcePoint" />
          </mxGeometry>
        </mxCell>
        <mxCell id="SFPaSA88H66n3JvD3_18-4" value="" style="shape=umlActor;verticalLabelPosition=bottom;verticalAlign=top;html=1;outlineConnect=0;align=center;" vertex="1" parent="1">
          <mxGeometry x="80" y="20" width="40" height="60" as="geometry" />
        </mxCell>
        <mxCell id="SFPaSA88H66n3JvD3_18-5" value="" style="endArrow=none;dashed=1;html=1;rounded=0;" edge="1" parent="1" target="SFPaSA88H66n3JvD3_18-4">
          <mxGeometry width="50" height="50" relative="1" as="geometry">
            <mxPoint x="100" y="600" as="sourcePoint" />
            <mxPoint x="220" y="190" as="targetPoint" />
          </mxGeometry>
        </mxCell>
        <mxCell id="SFPaSA88H66n3JvD3_18-6" value="User" style="text;html=1;align=center;verticalAlign=middle;whiteSpace=wrap;rounded=0;" vertex="1" parent="1">
          <mxGeometry x="65" y="-10" width="60" height="30" as="geometry" />
        </mxCell>
        <mxCell id="SFPaSA88H66n3JvD3_18-7" value="RoomManager" style="shape=umlLifeline;perimeter=lifelinePerimeter;whiteSpace=wrap;html=1;container=0;dropTarget=0;collapsible=0;recursiveResize=0;outlineConnect=0;portConstraint=eastwest;newEdgeStyle={&quot;edgeStyle&quot;:&quot;elbowEdgeStyle&quot;,&quot;elbow&quot;:&quot;vertical&quot;,&quot;curved&quot;:0,&quot;rounded&quot;:0};" vertex="1" parent="1">
          <mxGeometry x="425" y="40" width="100" height="420" as="geometry" />
        </mxCell>
        <mxCell id="SFPaSA88H66n3JvD3_18-8" value="" style="html=1;points=[];perimeter=orthogonalPerimeter;outlineConnect=0;targetShapes=umlLifeline;portConstraint=eastwest;newEdgeStyle={&quot;edgeStyle&quot;:&quot;elbowEdgeStyle&quot;,&quot;elbow&quot;:&quot;vertical&quot;,&quot;curved&quot;:0,&quot;rounded&quot;:0};" vertex="1" parent="SFPaSA88H66n3JvD3_18-7">
          <mxGeometry x="45" y="80" width="10" height="330" as="geometry" />
        </mxCell>
        <mxCell id="SFPaSA88H66n3JvD3_18-9" value="" style="endArrow=block;html=1;rounded=0;elbow=vertical;endFill=1;verticalAlign=middle;" edge="1" parent="1" source="aM9ryv3xv72pqoxQDRHE-6">
          <mxGeometry width="50" height="50" relative="1" as="geometry">
            <mxPoint x="350" y="300" as="sourcePoint" />
            <mxPoint x="467" y="280" as="targetPoint" />
          </mxGeometry>
        </mxCell>
        <mxCell id="SFPaSA88H66n3JvD3_18-11" value="search_room(text_input: String)" style="edgeLabel;html=1;align=center;verticalAlign=middle;resizable=0;points=[];" vertex="1" connectable="0" parent="SFPaSA88H66n3JvD3_18-9">
          <mxGeometry x="-0.0669" relative="1" as="geometry">
            <mxPoint x="5" y="-10" as="offset" />
          </mxGeometry>
        </mxCell>
        <mxCell id="SFPaSA88H66n3JvD3_18-12" value="&amp;lt;&amp;lt;List&amp;gt;&amp;gt;&lt;br&gt;Rooms" style="shape=umlLifeline;perimeter=lifelinePerimeter;whiteSpace=wrap;html=1;container=0;dropTarget=0;collapsible=0;recursiveResize=0;outlineConnect=0;portConstraint=eastwest;newEdgeStyle={&quot;edgeStyle&quot;:&quot;elbowEdgeStyle&quot;,&quot;elbow&quot;:&quot;vertical&quot;,&quot;curved&quot;:0,&quot;rounded&quot;:0};" vertex="1" parent="1">
          <mxGeometry x="610" y="40" width="100" height="420" as="geometry" />
        </mxCell>
        <mxCell id="SFPaSA88H66n3JvD3_18-13" value="" style="html=1;points=[];perimeter=orthogonalPerimeter;outlineConnect=0;targetShapes=umlLifeline;portConstraint=eastwest;newEdgeStyle={&quot;edgeStyle&quot;:&quot;elbowEdgeStyle&quot;,&quot;elbow&quot;:&quot;vertical&quot;,&quot;curved&quot;:0,&quot;rounded&quot;:0};" vertex="1" parent="SFPaSA88H66n3JvD3_18-12">
          <mxGeometry x="45" y="80" width="10" height="330" as="geometry" />
        </mxCell>
        <mxCell id="SFPaSA88H66n3JvD3_18-18" value="" style="html=1;points=[];perimeter=orthogonalPerimeter;outlineConnect=0;targetShapes=umlLifeline;portConstraint=eastwest;newEdgeStyle={&quot;edgeStyle&quot;:&quot;elbowEdgeStyle&quot;,&quot;elbow&quot;:&quot;vertical&quot;,&quot;curved&quot;:0,&quot;rounded&quot;:0};" vertex="1" parent="SFPaSA88H66n3JvD3_18-12">
          <mxGeometry x="51" y="312" width="10" height="48" as="geometry" />
        </mxCell>
        <mxCell id="SFPaSA88H66n3JvD3_18-14" value="" style="endArrow=block;html=1;rounded=0;elbow=vertical;endFill=1;verticalAlign=middle;" edge="1" parent="1">
          <mxGeometry width="50" height="50" relative="1" as="geometry">
            <mxPoint x="480" y="320" as="sourcePoint" />
            <mxPoint x="652" y="320" as="targetPoint" />
          </mxGeometry>
        </mxCell>
        <mxCell id="SFPaSA88H66n3JvD3_18-15" value="search_room(text_input: String)" style="edgeLabel;html=1;align=center;verticalAlign=middle;resizable=0;points=[];" vertex="1" connectable="0" parent="SFPaSA88H66n3JvD3_18-14">
          <mxGeometry x="-0.0669" relative="1" as="geometry">
            <mxPoint x="5" y="-10" as="offset" />
          </mxGeometry>
        </mxCell>
        <mxCell id="SFPaSA88H66n3JvD3_18-16" value="" style="endArrow=block;html=1;rounded=0;elbow=vertical;endFill=1;verticalAlign=middle;edgeStyle=orthogonalEdgeStyle;" edge="1" parent="1">
          <mxGeometry width="50" height="50" relative="1" as="geometry">
            <mxPoint x="665" y="333" as="sourcePoint" />
            <mxPoint x="672" y="380" as="targetPoint" />
            <Array as="points">
              <mxPoint x="665" y="331" />
              <mxPoint x="700" y="331" />
              <mxPoint x="700" y="380" />
            </Array>
          </mxGeometry>
        </mxCell>
        <mxCell id="SFPaSA88H66n3JvD3_18-17" value="search_room(text_input: String)" style="edgeLabel;html=1;align=center;verticalAlign=middle;resizable=0;points=[];" vertex="1" connectable="0" parent="SFPaSA88H66n3JvD3_18-16">
          <mxGeometry x="-0.0669" relative="1" as="geometry">
            <mxPoint x="50" y="-27" as="offset" />
          </mxGeometry>
        </mxCell>
        <mxCell id="SFPaSA88H66n3JvD3_18-19" value="list_of_potential_rooms" style="html=1;verticalAlign=bottom;endArrow=open;elbow=vertical;rounded=0;dashed=1;endFill=0;" edge="1" parent="1">
          <mxGeometry relative="1" as="geometry">
            <mxPoint x="655" y="410" as="sourcePoint" />
            <mxPoint x="480" y="410" as="targetPoint" />
          </mxGeometry>
        </mxCell>
        <mxCell id="SFPaSA88H66n3JvD3_18-20" value="list_of_potential_rooms" style="html=1;verticalAlign=bottom;endArrow=open;elbow=vertical;rounded=0;dashed=1;endFill=0;" edge="1" parent="1">
          <mxGeometry relative="1" as="geometry">
            <mxPoint x="469" y="420" as="sourcePoint" />
            <mxPoint x="296" y="420" as="targetPoint" />
          </mxGeometry>
        </mxCell>
        <mxCell id="SFPaSA88H66n3JvD3_18-21" value="Show potential rooms in dropdown." style="html=1;verticalAlign=bottom;endArrow=open;elbow=vertical;rounded=0;dashed=1;endFill=0;" edge="1" parent="1">
          <mxGeometry relative="1" as="geometry">
            <mxPoint x="285" y="440" as="sourcePoint" />
            <mxPoint x="100" y="440" as="targetPoint" />
          </mxGeometry>
        </mxCell>
        <mxCell id="SFPaSA88H66n3JvD3_18-22" value="loop" style="shape=umlFrame;whiteSpace=wrap;html=1;pointerEvents=0;" vertex="1" parent="1">
          <mxGeometry x="80" y="170" width="760" height="360" as="geometry" />
        </mxCell>
        <mxCell id="SFPaSA88H66n3JvD3_18-24" value="[selected_room = null]" style="text;html=1;align=center;verticalAlign=middle;whiteSpace=wrap;rounded=0;fillColor=default;" vertex="1" parent="1">
          <mxGeometry x="90" y="210" width="130" height="20" as="geometry" />
        </mxCell>
        <mxCell id="SFPaSA88H66n3JvD3_18-25" value="select_room(selected_room: Room)" style="html=1;verticalAlign=bottom;endArrow=block;endSize=6;elbow=vertical;rounded=0;endFill=1;" edge="1" parent="1">
          <mxGeometry relative="1" as="geometry">
            <mxPoint x="285" y="505" as="targetPoint" />
            <mxPoint x="100" y="505" as="sourcePoint" />
          </mxGeometry>
        </mxCell>
        <mxCell id="SFPaSA88H66n3JvD3_18-26" value="Show room information." style="html=1;verticalAlign=bottom;endArrow=open;elbow=vertical;rounded=0;dashed=1;endFill=0;" edge="1" parent="1">
          <mxGeometry relative="1" as="geometry">
            <mxPoint x="285" y="560" as="sourcePoint" />
            <mxPoint x="100" y="560" as="targetPoint" />
          </mxGeometry>
        </mxCell>
        <mxCell id="SFPaSA88H66n3JvD3_18-27" value="opt" style="shape=umlFrame;whiteSpace=wrap;html=1;pointerEvents=0;" vertex="1" parent="1">
          <mxGeometry x="90" y="450" width="220" height="70" as="geometry" />
        </mxCell>
      </root>
    </mxGraphModel>
  </diagram>
</mxfile>
